HIERARCHY
ROOT hips
{
  OFFSET 0 9.313263304106702 1.2146308026317778
  CHANNELS 6 Xposition Yposition Zposition Yrotation Xrotation Zrotation
  JOINT spine
  {
    OFFSET -6.402521e-31 0.5173342420023708 0
    CHANNELS 3 Yrotation Xrotation Zrotation
    JOINT chest
    {
      OFFSET 0 1.130544299341115 0
      CHANNELS 3 Yrotation Xrotation Zrotation
      JOINT upperChest
      {
        OFFSET 0 1.0863555061129995 0
        CHANNELS 3 Yrotation Xrotation Zrotation
        JOINT neck
        {
          OFFSET 0 1.3773706506454462 0
          CHANNELS 3 Yrotation Xrotation Zrotation
          JOINT head
          {
            OFFSET 0 0.7374408940073979 0
            CHANNELS 3 Yrotation Xrotation Zrotation
            JOINT leftEye
            {
              OFFSET 0.25066580148932727 0.6408406698778757 0.15963719178883284
              CHANNELS 3 Yrotation Xrotation Zrotation
              End Site
              {
                OFFSET 0.25066580148932727 0.6408406698778757 0.15963719178883284
              }
            }
            JOINT rightEye
            {
              OFFSET -0.25066576739704244 0.6408406384191823 0.15963727561643756
              CHANNELS 3 Yrotation Xrotation Zrotation
              End Site
              {
                OFFSET -0.25066576739704244 0.6408406384191823 0.15963727561643756
              }
            }
          }
        }
        JOINT leftShoulder
        {
          OFFSET 0.3761817444281191 1.0539491987447769 0
          CHANNELS 3 Yrotation Xrotation Zrotation
          JOINT leftUpperArm
          {
            OFFSET 0.8702844380000002 0 0
            CHANNELS 3 Yrotation Xrotation Zrotation
            JOINT leftLowerArm
            {
              OFFSET 2.198527310000323 0 0
              CHANNELS 3 Yrotation Xrotation Zrotation
              JOINT leftHand
              {
                OFFSET 2.146852313968281 0 0
                CHANNELS 3 Yrotation Xrotation Zrotation
                JOINT leftIndexProximal
                {
                  OFFSET 0.6585177834681599 0.07380250427007962 0.18382213159631788
                  CHANNELS 3 Yrotation Xrotation Zrotation
                  JOINT leftIndexIntermediate
                  {
                    OFFSET 0.3323021288626682 -0.009606893929485771 -0.012820872253340998
                    CHANNELS 3 Yrotation Xrotation Zrotation
                    JOINT leftIndexDistal
                    {
                      OFFSET 0.2045908926985518 -0.0071133989147997845 -0.006828784783599051
                      CHANNELS 3 Yrotation Xrotation Zrotation
                      End Site
                      {
                        OFFSET 0.2045908926985518 -0.0071133989147997845 -0.006828784783599051
                      }
                    }
                  }
                }
                JOINT leftLittleProximal
                {
                  OFFSET 0.6110054258835662 0.07380246363125398 -0.29175655876064077
                  CHANNELS 3 Yrotation Xrotation Zrotation
                  JOINT leftLittleIntermediate
                  {
                    OFFSET 0.3144281999999998 -2.5124724523095665e-9 1.8658118799974588e-7
                    CHANNELS 3 Yrotation Xrotation Zrotation
                    JOINT leftLittleDistal
                    {
                      OFFSET 0.18116185580251631 0.002815456192251098 0.0034826415518049436
                      CHANNELS 3 Yrotation Xrotation Zrotation
                      End Site
                      {
                        OFFSET 0.18116185580251631 0.002815456192251098 0.0034826415518049436
                      }
                    }
                  }
                }
                JOINT leftMiddleProximal
                {
                  OFFSET 0.6637478005691111 0.07380246480054087 0.02046981859247815
                  CHANNELS 3 Yrotation Xrotation Zrotation
                  JOINT leftMiddleIntermediate
                  {
                    OFFSET 0.3705733999999994 -2.9611069152224445e-9 9.35054791928458e-8
                    CHANNELS 3 Yrotation Xrotation Zrotation
                    JOINT leftMiddleDistal
                    {
                      OFFSET 0.22861063500000056 -1.82673876025774e-9 -1.6740782024515788e-7
                      CHANNELS 3 Yrotation Xrotation Zrotation
                      End Site
                      {
                        OFFSET 0.22861063500000056 -1.82673876025774e-9 -1.6740782024515788e-7
                      }
                    }
                  }
                }
                JOINT leftRingProximal
                {
                  OFFSET 0.6561845547265777 0.07380246406440083 -0.13588087571513918
                  CHANNELS 3 Yrotation Xrotation Zrotation
                  JOINT leftRingIntermediate
                  {
                    OFFSET 0.3437531000000005 -2.746796123886952e-9 1.4935781944558357e-7
                    CHANNELS 3 Yrotation Xrotation Zrotation
                    JOINT leftRingDistal
                    {
                      OFFSET 0.1983118991198174 -0.002467117924596085 -0.004538141969590015
                      CHANNELS 3 Yrotation Xrotation Zrotation
                      End Site
                      {
                        OFFSET 0.1983118991198174 -0.002467117924596085 -0.004538141969590015
                      }
                    }
                  }
                }
                JOINT leftThumbProximal
                {
                  OFFSET 0.09767004258864787 -0.14930060425447422 -0.07008212897521154
                  CHANNELS 3 Yrotation Xrotation Zrotation
                  JOINT leftThumbIntermediate
                  {
                    OFFSET 0.36682123028154767 -0.015768465060082004 0.28693641268151077
                    CHANNELS 3 Yrotation Xrotation Zrotation
                    JOINT leftThumbDistal
                    {
                      OFFSET 0.21091084272403915 -0.016756648201192714 0.1933767059105508
                      CHANNELS 3 Yrotation Xrotation Zrotation
                      End Site
                      {
                        OFFSET 0.21091084272403915 -0.016756648201192714 0.1933767059105508
                      }
                    }
                  }
                }
              }
            }
          }
        }
        JOINT rightShoulder
        {
          OFFSET -0.37618174442811925 1.0539491987447769 0
          CHANNELS 3 Yrotation Xrotation Zrotation
          JOINT rightUpperArm
          {
            OFFSET -0.870284438 0 0
            CHANNELS 3 Yrotation Xrotation Zrotation
            JOINT rightLowerArm
            {
              OFFSET -2.1985273100003235 0 0
              CHANNELS 3 Yrotation Xrotation Zrotation
              JOINT rightHand
              {
                OFFSET -2.1468523139682802 0 0
                CHANNELS 3 Yrotation Xrotation Zrotation
                JOINT rightIndexProximal
                {
                  OFFSET -0.6585177834681599 0.07380250427007962 0.18382213159631788
                  CHANNELS 3 Yrotation Xrotation Zrotation
                  JOINT rightIndexIntermediate
                  {
                    OFFSET -0.3323021288626682 -0.009606893929485771 -0.012820872253340998
                    CHANNELS 3 Yrotation Xrotation Zrotation
                    JOINT rightIndexDistal
                    {
                      OFFSET -0.2045908926985518 -0.0071133989147997845 -0.006828784783599051
                      CHANNELS 3 Yrotation Xrotation Zrotation
                      End Site
                      {
                        OFFSET -0.2045908926985518 -0.0071133989147997845 -0.006828784783599051
                      }
                    }
                  }
                }
                JOINT rightLittleProximal
                {
                  OFFSET -0.6110054258835662 0.07380246363125398 -0.29175655876064077
                  CHANNELS 3 Yrotation Xrotation Zrotation
                  JOINT rightLittleIntermediate
                  {
                    OFFSET -0.3144281999999998 -2.5124724523095665e-9 1.8658118799974588e-7
                    CHANNELS 3 Yrotation Xrotation Zrotation
                    JOINT rightLittleDistal
                    {
                      OFFSET -0.18116185580251631 0.002815456192251098 0.0034826415518049436
                      CHANNELS 3 Yrotation Xrotation Zrotation
                      End Site
                      {
                        OFFSET -0.18116185580251631 0.002815456192251098 0.0034826415518049436
                      }
                    }
                  }
                }
                JOINT rightMiddleProximal
                {
                  OFFSET -0.6637478005691111 0.07380246480054087 0.02046981859247815
                  CHANNELS 3 Yrotation Xrotation Zrotation
                  JOINT rightMiddleIntermediate
                  {
                    OFFSET -0.3705733999999994 -2.9611069152224445e-9 9.35054791928458e-8
                    CHANNELS 3 Yrotation Xrotation Zrotation
                    JOINT rightMiddleDistal
                    {
                      OFFSET -0.22861063500000056 -1.82673876025774e-9 -1.6740782024515788e-7
                      CHANNELS 3 Yrotation Xrotation Zrotation
                      End Site
                      {
                        OFFSET -0.22861063500000056 -1.82673876025774e-9 -1.6740782024515788e-7
                      }
                    }
                  }
                }
                JOINT rightRingProximal
                {
                  OFFSET -0.6561845547265777 0.07380246406440083 -0.13588087571513918
                  CHANNELS 3 Yrotation Xrotation Zrotation
                  JOINT rightRingIntermediate
                  {
                    OFFSET -0.3437531000000005 -2.746796123886952e-9 1.4935781944558357e-7
                    CHANNELS 3 Yrotation Xrotation Zrotation
                    JOINT rightRingDistal
                    {
                      OFFSET -0.1983118991198174 -0.002467117924596085 -0.004538141969590015
                      CHANNELS 3 Yrotation Xrotation Zrotation
                      End Site
                      {
                        OFFSET -0.1983118991198174 -0.002467117924596085 -0.004538141969590015
                      }
                    }
                  }
                }
                JOINT rightThumbProximal
                {
                  OFFSET -0.09767004258864787 -0.14930060425447422 -0.07008212897521154
                  CHANNELS 3 Yrotation Xrotation Zrotation
                  JOINT rightThumbIntermediate
                  {
                    OFFSET -0.36682123028154767 -0.015768465060082004 0.28693641268151077
                    CHANNELS 3 Yrotation Xrotation Zrotation
                    JOINT rightThumbDistal
                    {
                      OFFSET -0.21091084272403915 -0.016756648201192714 0.1933767059105508
                      CHANNELS 3 Yrotation Xrotation Zrotation
                      End Site
                      {
                        OFFSET -0.21091084272403915 -0.016756648201192714 0.1933767059105508
                      }
                    }
                  }
                }
              }
            }
          }
        }
      }
    }
  }
  JOINT leftUpperLeg
  {
    OFFSET 0.7715603 -0.3993844658041501 0
    CHANNELS 3 Yrotation Xrotation Zrotation
    JOINT leftLowerLeg
    {
      OFFSET 0 -3.529830000249343 0
      CHANNELS 3 Yrotation Xrotation Zrotation
      JOINT leftFoot
      {
        OFFSET 0 -4.154939295409685 0.004208579085223096
        CHANNELS 3 Yrotation Xrotation Zrotation
        JOINT leftToes
        {
          OFFSET 0 -0.6353414391261847 1.10414981190622
          CHANNELS 3 Yrotation Xrotation Zrotation
          End Site
          {
            OFFSET 0 -0.6015820691747853 1.10414981190622
          }
        }
      }
    }
  }
  JOINT rightUpperLeg
  {
    OFFSET -0.7715603 -0.3993844658041501 0
    CHANNELS 3 Yrotation Xrotation Zrotation
    JOINT rightLowerLeg
    {
      OFFSET 0 -3.529830000249343 0
      CHANNELS 3 Yrotation Xrotation Zrotation
      JOINT rightFoot
      {
        OFFSET 0 -4.154939295409685 0.004208579085223096
        CHANNELS 3 Yrotation Xrotation Zrotation
        JOINT rightToes
        {
          OFFSET 0 -0.6353414391261847 1.10414981190622
          CHANNELS 3 Yrotation Xrotation Zrotation
          End Site
          {
            OFFSET 0 -0.6015820691747853 1.10414981190622
          }
        }
      }
    }
  }
}
MOTION
Frames: 4
Frame Time: 0.03333333333333333
-0.37480316378853534 9.412102265791459 -4.35965756559332 -28.44192261597718 10.568251708959185 -1.6234360704406072 -0.3937691587175117 -0.07736390204012991 -0.6950737479767249 0.36657695541322405 -0.304840838356482 0.925025033992951 0 0 0 0.44605809095628124 -1.765319698289978 0.311676047956251 3.2810841895235203 -6.788070713544493 1.5069564726612987 0 0 0 0 0 0 4.181019791598545 1.2025994516727025 -15.788489645975435 -0.07885307075216973 7.677788568407944 -66.60098654338681 -21.398315205232674 -31.048256327208094 4.46789109798128 6.644718677473798 -21.019495094053845 14.847144609972336 1.9612332111499169 3.680405482517041 -27.253494754297318 -0.022237629706375113 0.028732272505170676 -35.58866726059991 -0.12726489803860364 0.17940975256757252 -30.850926843330715 7.090057715954433 1.74642118933368 -27.264904703140125 0.0000023847058059594838 -1.1228410153054843e-7 -27.325043282754137 0.000004504703154889361 0.0000014254582491390743 -32.41961647377322 1.3318497886519511 1.8757925306910668 -25.66099089801555 0.0000029167707735131587 -0.000010485817960914667 -38.58350426153092 -0.00001051266855975753 0.0000036671272339640366 -31.179796483369895 4.040061778661149 1.1709922671971815 -23.611280896577895 -0.000006477620866906875 -0.00000981277880010404 -38.412371842453325 0.00001522577224226213 -0.0000016842688891228687 -28.654961773153268 12.834642583360795 7.63677123037444 -13.63237998882943 26.952498981859016 0.11222721683995306 0.09539716322545876 18.823480373577322 -0.10403015480879782 -0.0764341695389211 -5.551344705682984 1.0971892437081292 6.050827839820365 9.614129323064532 -11.145800878645545 51.27666540818984 79.62598828530943 -0.1048821756329524 -13.03791590237143 -14.583192174368987 -3.4244564957084456 -42.36805175700814 -0.780963202616969 3.3004507233159712 30.83161019407745 -0.24079590579795934 -0.26027851369098626 45.68059861482388 -0.0950505899725249 -0.11291620016208584 40.333173212120975 -7.020924351027235 1.661218416493159 30.01319547913997 -0.000014260043071223084 -0.000004011353832695718 34.97184839221873 0.0000101052481561708 0.0000013096078934219506 41.59403982234059 -1.135632003552038 2.004487546304489 29.484047143341165 0.000006493962302415859 0.000001463106144125871 49.21221430778493 -0.0000039752988612711385 -0.0000011725788093030228 39.69381926137788 -3.9584788883918076 1.1183482152913877 26.592756671090388 -0.000004004502154578712 0.000013688653013143969 48.38041503167409 0.000021637760709427927 -4.884009897757971e-7 36.767757618613565 -7.697940913717663 8.725219661950254 16.15111687046585 -24.10410335918778 0.03925716232655795 -0.031706064949677856 -20.89874818489336 -0.04653067217048029 0.035500349598956586 -1.05431453476447 -31.75863235696675 -2.4495543161460533 0.9458392228219841 34.485796837606415 1.190245749497139 1.830681679176227 8.696319903132409 2.8190606201249793 4.521714739861141e-8 0.47499728640825417 -4.4989287169133437e-7 -0.11917305137425276 -17.833646747684448 1.5280982194397272 2.625367705657999 7.61021724524462 0.5366516220067377 3.256766853822812 10.845696429333364 4.041636053747515 0.0000014735275461662863 -1.8926367738675283 5.373951492528081e-7
-0.3970216621052135 9.326171008023348 -4.369548902207756 -28.69996994412825 10.664646731241076 -2.5565142931213294 -0.23322454094961292 -0.05243851786924353 -0.3175359517738384 0.5567281677790439 -0.2194361316666294 1.822500342619063 0 0 0 0.481921143099673 -1.8037470511815574 0.25102038898356327 3.4909502109941 -6.967860974686304 1.1854671187561208 0 0 0 0 0 0 4.684710847736051 1.3424996164353675 -15.672877511407304 1.8559997387596345 9.117066799679629 -67.08589884239088 -24.707521515826382 -30.431190680776833 5.498870286894774 10.047690890462736 -20.029928057725666 13.101583973157458 1.961245512543628 3.680404626978958 -27.253510011549608 -0.022247097922976092 0.028741367196679145 -35.588677579682994 -0.12727522338900643 0.17940409628943715 -30.850967850544368 7.090058987412789 1.7464287700960974 -27.26492297228547 0.000003245093377504523 -0.000004984576695897608 -27.325055418860345 0.000005597593446537119 -0.0000019387753480673327 -32.419655508477014 1.3318484009009692 1.8757698935591363 -25.66100155718641 -0.000008212191780427744 0.000007659140444419478 -38.58345518786928 -4.7078422817285753e-7 0.0000024259266088532518 -31.17980524868875 4.04006901921564 1.1709876772052539 -23.61127952844637 -0.0000017508649205984733 -9.315550778754073e-8 -38.4124379977233 -0.0000029314035641583865 -0.000007721678393454786 -28.65497240128117 12.834629145092267 7.636792765724856 -13.632384986671864 26.952486753574725 0.11220704639887397 0.09537816675220596 18.823463623760457 -0.10401437998066389 -0.07640786261782176 -5.569132800242372 1.099273367858352 6.022442167452443 9.254617054763076 -11.133259147883322 51.2067073875638 82.27250651796426 0.26671838296621425 -13.366453004781691 -14.552896728682722 -3.5861784650978445 -42.1432909569972 -0.7809795566463122 3.300453502690297 30.831586126323277 -0.24079166360391427 -0.26028574416115985 45.68055770850261 -0.09507054694318456 -0.11292673895099943 40.333140940893955 -7.020906978859299 1.6612088075011107 30.013184894968113 -0.0000011265112481857057 -0.000006448365463391441 34.971832442557826 -0.000004249486490806747 0.0000051308382432570135 41.59397884074987 -1.1356397974752348 2.0044777218959378 29.484015326001266 0.000005774751054738884 0.0000056690894659994505 49.212193165081445 -3.45887942386215e-7 -0.0000019208600214353345 39.69381400576378 -3.958495074474579 1.1183490692276978 26.592749033253455 0.00000431088290060022 0.000005711068309573778 48.380414462109584 0.000007936062231425826 0.000004185684462118851 36.76774941144364 -7.697952504340287 8.725222253259881 16.151129447063305 -24.104100241872015 0.03923462736608502 -0.031714729419127084 -20.898734204972033 -0.0465296949995395 0.03549650094685461 -0.6906293153180434 -31.946629675684424 -2.602559666835055 2.0685574316951514 34.749418914754244 1.708722110397673 2.625710216766249 9.070038985230413 4.338046320960275 0.0000010673370197405743 0.4749988872888538 4.967651221683173e-7 -0.19223715431845542 -17.87078815128839 2.794166790847677 2.69429522066192 7.652803307187187 0.5824993782334411 3.659847876309879 13.083047616074227 4.702390987917866 -8.771058956247424e-7 -1.8926337840287175 -3.2565411042510433e-7
-0.40414216843518336 9.223242673006924 -4.3756428810895915 -29.008398260900005 10.379952727436178 -3.4589171612723484 -0.0632791797301134 0.05210186744331717 0.07265166930369692 0.7706907870521154 0.18374462326269264 2.7995592544291545 0 0 0 0.5492776392836742 -1.8261382528066017 0.16742551449341248 3.8669429279742444 -7.070125279436354 0.7752340730781127 0 0 0 0 0 0 5.360804676912328 1.524719476574559 -15.440284928971094 3.5303011473399253 10.498271977138911 -66.90008656625135 -28.348543319213075 -29.00120179272742 6.475577202065603 11.268094317507487 -18.51365713126065 12.703375504688525 1.9612052086911502 3.680385377372318 -27.25347636284508 -0.022224704706923674 0.02873900264358795 -35.58872879329505 -0.12727883859567005 0.17939406439991834 -30.850936209686804 7.0900776354678605 1.746447455074017 -27.26490005420094 -0.0000011633343362880678 -0.00001822252282135116 -27.32504626613634 0.0000037648973830944676 -0.0000012502962990555202 -32.419665987858885 1.3318401811451213 1.875777581641646 -25.6609923776997 -0.000003059927692392456 0.0000012005481491719386 -38.58348452411877 -0.0000051923352094672754 -0.000009036370899701602 -31.179764268779813 4.040061778661149 1.1709830872133338 -23.611276398596807 -4.072416818580821e-7 -0.0000028736326813685357 -38.412435321797126 0.000010566147474838028 0.000005603990788779004 -28.654964769978175 12.834606616976199 7.63678242875652 -13.63237998882943 26.95249743395899 0.11220700637815753 0.09537641251327741 18.82344253960092 -0.1040319957612571 -0.0764193418803034 -5.533876846778346 1.091025795257156 5.996937255953685 9.07346504069386 -11.691840088878688 50.80167612735353 85.53473162656286 0.45147606738985174 -13.911200369468046 -14.09558121474187 -3.9308027166789232 -42.01822650105649 -0.7809815272757759 3.3004838620103554 30.831613131413103 -0.2407847533632943 -0.260306848596266 45.68058174067542 -0.09507490919545802 -0.11292769944821705 40.33315356449492 -7.020906554995301 1.6612104089997821 30.013213918817176 0.000007195380763871603 -0.0000012198987456317125 34.97183608200359 0.0000023436519185754017 -0.0000086393057714912 41.59403726830451 -1.135631576487752 2.0044790033405286 29.484030393735345 0.000007348044131693855 0.000007427662829812807 49.2122069054752 6.28176190251138e-7 -0.00001545367949340612 39.693816633570925 -3.9584852776350825 1.1183620917564565 26.59275056045159 0.000010942152751058382 -0.000008864827352179177 48.380394892259645 0.000003720241784700221 0.0000023163406736367386 36.767789033769326 -7.6979940544567995 8.725209296711927 16.151112590648662 -24.10411722316056 0.039236635068645775 -0.031731524749433325 -20.898749780105383 -0.04652910469490974 0.03549443321348946 0.4266954174345113 -32.258496486275945 -2.3062412656024627 4.7368643308372045 37.690827551590736 2.953322384426033 4.051740749117574 8.642952889893758 6.878832113797518 0.0000017461220810062262 0.47499440482317573 0.000001260317832568536 -0.5781793020761463 -18.13646955450089 3.8541760099670475 2.42189358599271 9.064279172290234 0.6853737061600652 3.9675422162982787 14.245642460251966 5.51266683301346 6.452027544292983e-7 -1.8926329297890585 5.544058419423487e-7
-0.4067127000201832 9.110651883212002 -4.387471910519634 -28.964840289004798 10.073389142357012 -4.150370391646946 0.06929928352808956 0.1587081193561097 0.37460415134805713 0.9343697458786033 0.5998125022298534 3.5085494782768802 0 0 0 0.5760881596936445 -1.8276882129391783 0.11440812202677263 4.029265665788861 -7.085052420832869 0.5026843237771447 0 0 0 0 0 0 5.905643424754729 1.6610517538710319 -15.101532260942554 4.773163387198023 11.107559554288686 -66.13824385261992 -32.03150899701064 -27.65490417822055 7.436714427911279 10.861505843340083 -17.171499544400373 13.216577874657931 1.9612133315418812 3.6803930772149243 -27.253506923321396 -0.022223775894551705 0.028726769666524536 -35.58875896078379 -0.12726884675142017 0.1794063241159667 -30.850952620414507 7.090100943436286 1.746440621710642 -27.26494280662843 -0.0000058181063406015975 0.000004107230101457752 -27.325029427057547 -4.725816741233211e-7 0.0000029377868610707753 -32.41969166033924 1.3318478671505913 1.8757805714515197 -25.661004697382563 -0.0000032787966722420567 -0.0000023846567490840794 -38.583532007674705 0.000007759907744726159 0.0000027015041153402244 -31.179814014005984 4.040072852450318 1.1709895985972227 -23.611316299466353 0.000004629003913617446 -0.000010484598256360982 -38.412479609994335 0.000008080133928720386 0.000005943934579798814 -28.654958637087606 12.83459332767245 7.6367591705786815 -13.632421796066405 26.952505044361825 0.11223209936735921 0.09541469894460503 18.823454955072197 -0.10402880077492387 -0.07643122801960099 -5.511801116412392 1.0854432431353334 5.972488585507564 8.894708287149228 -12.282956267559861 50.39233063420351 88.47627989453632 0.5684548077482474 -14.43458548097676 -13.440741225143396 -4.2658444440754755 -42.07900374396406 -0.7810132198896961 3.300503103833408 30.831616068748573 -0.2407896358885207 -0.2603090364138138 45.68060577283989 -0.0950664648355515 -0.11290962342419614 40.33316319183286 -7.020936643082632 1.6612119037318767 30.013219835632533 4.783054003280829e-7 0.00001835508141958758 34.97182181434696 0.000006980601214009244 -0.0000131320760958823 41.59403244716418 -1.135660791352646 2.004510612307406 29.48402722454431 0.000004071975103146653 0.000003993202788795167 49.21220361030665 -0.000010641439397257127 -0.000011618461013193006 39.69385426411335 -3.9585059590154907 1.1183726592183607 26.592761252684376 0.000012035035714708118 0.0000026242824867847856 48.38037333894686 0.000009195719030131052 -0.000005156643381054038 36.767808153393524 -7.698047195195543 8.725223980799642 16.151090057914626 -24.10413264578951 0.039243635347176106 -0.031716770471976345 -20.898737772384546 -0.04652964830877782 0.03551339299442287 1.6998503988894385 -32.56543287121585 -1.8315195958770583 7.447582107917751 40.7708420625788 4.266140815021118 5.191937514145354 7.880998360203446 8.951360045714173 -4.234183471249066e-7 0.47500331639184823 0.000001891896851746992 -0.824002141339982 -19.500681904701217 4.672192042711965 1.945646281320078 12.083990307610362 0.7845373030563766 3.737232059435279 13.675695259731327 6.067843643876924 5.322899404216001e-7 -1.892632502669229 4.1188848373679115e-7
